<mxfile host="app.diagrams.net" modified="2022-11-11T11:04:42.826Z" agent="5.0 (X11; Linux x86_64) AppleWebKit/537.36 (KHTML, like Gecko) Chrome/104.0.0.0 Safari/537.36" etag="vSRF3Xo0CKEAeEWR__du" version="20.5.3" type="github">
  <diagram id="K1LCTyo-_KkftZlhNfeh" name="Page-1">
    <mxGraphModel dx="1110" dy="743" grid="1" gridSize="10" guides="1" tooltips="1" connect="1" arrows="1" fold="1" page="1" pageScale="1" pageWidth="850" pageHeight="1100" math="0" shadow="0">
      <root>
        <mxCell id="0" />
        <mxCell id="1" parent="0" />
        <mxCell id="WFoLmnz2kU7VB-csCeFR-1" value="" style="aspect=fixed;html=1;points=[];align=center;image;fontSize=12;image=img/lib/azure2/general/Heart.svg;" vertex="1" parent="1">
          <mxGeometry x="140" y="150" width="64" height="60" as="geometry" />
        </mxCell>
        <mxCell id="WFoLmnz2kU7VB-csCeFR-2" value="" style="ellipse;whiteSpace=wrap;html=1;aspect=fixed;" vertex="1" parent="1">
          <mxGeometry x="300" y="150" width="80" height="80" as="geometry" />
        </mxCell>
      </root>
    </mxGraphModel>
  </diagram>
</mxfile>
